# xmcd
#
# Track frame offsets:
# 150
# 14005
# 27193
# 41223
# 55768
# 71817
# 87420
# 100875
# 114190
# 128903
# 142455
# 156035
# 170668
# 184670
#
# Disc length: 2647 seconds
#
#
# Revision: 0
# Processed by: cddbd v1.5.1PL0 Copyright (c) Steve Scherf et al.
# Submitted via: FreeRIP 2.942 
#
DISCID=c90a550e
DTITLE=Goldene Volksmusik Parade - Goldene Volksmusik Parade 6/97
DYEAR=1900
DGENRE=Volksmusik
TTITLE0=Daheim in Kastelruth
TTITLE1=Nimm dir Zeit um die Rosen zu seh´n
TTITLE2=Alles gute wünsch ich dir
TTITLE3=Austria ist mega-cool
TTITLE4=Gondoletta
TTITLE5=Frag doch dein Herz
TTITLE6=Herz an Herz mit dir
TTITLE7=Immer nur bei dir
TTITLE8=Das mit dir geht unter die Haut
TTITLE9=Der Zauber einer Nacht
TTITLE10=Du Land meiner Träume
TTITLE11=Denn die Herzen aller Menschen
TTITLE12=Des mog i
TTITLE13=Ich wünsch´mir was von dir
EXTD=
EXTT0=
EXTT1=
EXTT2=
EXTT3=
EXTT4=
EXTT5=
EXTT6=
EXTT7=
EXTT8=
EXTT9=
EXTT10=
EXTT11=
EXTT12=
EXTT13=
PLAYORDER=
